<svg width="97" height="67" viewBox="0 0 97 67" fill="none" xmlns="http://www.w3.org/2000/svg">
<path d="M15.835 35.167L15.8564 35.6446H16.3345H21.3298H21.8548H21.8829H22.4698H27.3273H27.733L27.8166 35.2476L28.6976 31.0602H30.646C33.1088 31.0602 35.1198 30.4063 36.6202 29.0456C38.1259 27.6801 38.8628 25.8384 38.8628 23.5789C38.8628 21.8633 38.2781 20.4518 37.0861 19.3992C35.8951 18.3477 34.2617 17.8545 32.2536 17.8545H25.9723H25.5658L25.4828 18.2524L21.9804 35.0425L21.8737 35.5537L21.8272 35.0943L20.1277 18.3041L20.0822 17.8545H19.6302H13.5211H13.2237L13.0817 18.1159L3.96393 34.906L3.56283 35.6446H4.40332H9.53638H9.84962L9.98628 35.3628L11.4688 32.3052H15.7071L15.835 35.167ZM32.3381 25.7487L32.338 25.7488C31.9311 26.1796 31.3951 26.4066 30.6804 26.4066H29.6552L30.4656 22.5779H31.335C31.9854 22.5779 32.3798 22.7261 32.61 22.9344C32.8308 23.1341 32.9824 23.464 32.9824 24.021C32.9824 24.7365 32.7623 25.3 32.3381 25.7487ZM50.7982 31.3371L50.9237 30.7351H50.3087H44.1046L44.4669 29.024H50.4465H50.852L50.9357 28.6272L51.6821 25.09L51.8094 24.4868H51.1929H45.4221L45.7781 22.764H52.1805H52.5858L52.6697 22.3675L53.4964 18.4579L53.6241 17.8545H53.0073H41.3287H40.9228L40.8394 18.2517L37.314 35.0419L37.1874 35.6446H37.8033H49.4934H49.8999L49.9828 35.2467L50.7982 31.3371ZM67.0087 35.6446H67.2853H67.4146H68.1258H73.2588H73.5721L73.7087 35.3628L75.1912 32.3052H79.4295L79.5575 35.167L79.5788 35.6446H80.057H85.0522H85.6054L85.5497 35.0943L83.8502 18.3041L83.8046 17.8545H83.3527H77.2436H76.9461L76.8042 18.1159L67.6864 34.906L67.4961 35.2564L67.498 35.2474L71.0234 18.4572L71.1499 17.8545H70.5341H65.5503H65.1449L65.0611 18.2511L63.7899 24.2657H59.2081L60.4356 18.4579L60.5631 17.8545H59.9464H54.9627H54.5567L54.4733 18.2517L50.9479 35.0419L50.8214 35.6446H51.4373H56.421H56.8267L56.9103 35.2477L58.2047 29.1054H62.7866L61.5357 35.0415L61.4086 35.6446H62.0249H67.0087ZM13.6415 27.8262L15.3608 24.2786L15.5139 27.8262H13.6415ZM79.2364 27.8262H77.364L79.0832 24.2786L79.2364 27.8262Z" stroke="white"/>
<path d="M30.4306 37.83L30.4315 37.8312C30.8909 38.4024 31.1343 39.1905 31.1343 40.2227C31.1343 41.8318 30.7361 43.1957 29.9505 44.3267C29.1636 45.4517 28.2638 45.9767 27.2502 45.9767C26.4817 45.9767 25.8817 45.6914 25.426 45.1183C24.9719 44.5302 24.7328 43.7363 24.7328 42.7127C24.7328 41.6641 24.915 40.6957 25.2771 39.8049C25.6401 38.9116 26.1201 38.2183 26.7114 37.714C27.3078 37.2118 27.9372 36.9704 28.6053 36.9704C29.3744 36.9704 29.9747 37.2562 30.4306 37.83ZM23.8426 49.8579L23.8442 49.8585C24.8325 50.227 25.919 50.4095 27.101 50.4095C28.3974 50.4095 29.6256 50.1585 30.7833 49.6558L30.7847 49.6552C31.9394 49.1458 32.943 48.4443 33.7931 47.551C34.6536 46.6471 35.3286 45.5352 35.8211 44.2205C36.3227 42.902 36.5721 41.4716 36.5721 39.9318C36.5721 38.8872 36.395 37.9135 36.0381 37.0131C35.6893 36.1138 35.1847 35.3321 34.5243 34.6709C33.8604 33.9984 33.0286 33.476 32.0353 33.1006C31.0386 32.7239 29.9324 32.5376 28.7201 32.5376C27.4233 32.5376 26.1947 32.7926 25.0368 33.3034C23.8885 33.8055 22.8883 34.5116 22.0383 35.4206C21.1859 36.3245 20.515 37.4362 20.0228 38.7504L20.0225 38.7512C19.5365 40.0616 19.2949 41.4838 19.2949 43.0153C19.2949 44.0602 19.4722 45.0379 19.829 45.9458L19.829 45.9458L19.83 45.9483C20.194 46.8464 20.7057 47.6308 21.3651 48.2989L21.3662 48.3C22.0298 48.9643 22.8572 49.4825 23.8426 49.8579ZM40.5856 50.1186H40.7886L40.8303 49.9199L42.801 40.5254L44.0239 49.9009L44.0523 50.1186H44.2718H47.0737H47.2221L47.2932 49.9884L52.4649 40.5099L50.4923 49.8168L50.4284 50.1186H50.7369H55.0432H55.2461L55.2878 49.92L58.8132 33.1299L58.8765 32.8285H58.5686H52.4939H52.3436L52.2731 32.9612L46.9747 42.9379L45.691 33.0463L45.6627 32.8285H45.4431H39.8048H39.6017L39.5601 33.0273L36.0462 49.8174L35.9831 50.1186H36.2909H40.5856ZM70.0725 39.7982L70.0247 40.0888H70.3192H75.0389H75.2473L75.2848 39.8837C75.3265 39.6553 75.3463 39.3913 75.3463 39.0941C75.3463 37.1964 74.6683 35.6196 73.3129 34.3834C71.9664 33.1484 70.2535 32.5376 68.1948 32.5376C65.1897 32.5376 62.7693 33.4932 60.9617 35.4208C59.1557 37.3466 58.2644 39.9224 58.2644 43.12C58.2644 45.3097 58.9504 47.0855 60.3392 48.4199L60.3398 48.4204C61.735 49.7533 63.5813 50.4095 65.8522 50.4095C67.362 50.4095 68.7454 50.124 69.9986 49.549C71.2515 48.9741 72.2764 48.1612 73.0682 47.1102C73.8605 46.0586 74.3543 44.8473 74.5514 43.4815L74.5926 43.1958H74.304H69.5843H69.3974L69.3445 43.375C69.1123 44.1618 68.7137 44.7757 68.1531 45.2289C67.5946 45.6727 66.9461 45.8952 66.1967 45.8952C65.4379 45.8952 64.8621 45.629 64.4398 45.1048C64.0112 44.5651 63.7826 43.8121 63.7826 42.8175C63.7826 41.0767 64.1613 39.6755 64.8988 38.5952C65.6399 37.5207 66.5665 37.0053 67.6895 37.0053C68.3689 37.0053 68.9284 37.2332 69.3847 37.6886L69.3861 37.6899C69.8499 38.1458 70.0807 38.7016 70.0807 39.3733C70.0807 39.5043 70.0798 39.6067 70.0779 39.6813C70.077 39.7187 70.0759 39.7478 70.0747 39.7693C70.0733 39.7932 70.0722 39.8005 70.0725 39.7982ZM93.8049 33.2491L94.1974 32.8285H93.6222H88.1102H88.0012L87.927 32.9083L82.0989 39.1801L83.371 33.1299L83.4344 32.8285H83.1264H78.2574H78.0545L78.0128 33.0271L74.4874 49.8172L74.4241 50.1186H74.7321H79.601H79.8038L79.8456 49.9202L81.0835 44.0486L84.5526 49.9946L84.6249 50.1186H84.7685H90.1772H90.6147L90.3925 49.7417L85.7562 41.8741L93.8049 33.2491Z" fill="white" stroke="#FCF7EF" stroke-width="0.5"/>
<path d="M4.46199 55.2008L3.29726 54.331L8.42081 42.3216L3.09965 36.6388L1.88663 35.3433L3.66405 35.3739L27.2536 35.7807L29.6374 35.8218L27.6526 37.1537C21.256 41.4462 6.69952 53.352 4.46199 55.2008Z" stroke="#FCF7EF" stroke-width="1.5"/>
</svg>
