<svg width="64" height="48" viewBox="0 0 64 48" fill="none" xmlns="http://www.w3.org/2000/svg">
<path d="M24 2.25C20.222 2.25437 16.6 3.7571 13.9286 6.42855C11.2571 9.1 9.75437 12.722 9.75 16.5V31.5C9.75 35.2793 11.2513 38.9039 13.9237 41.5763C16.5961 44.2487 20.2207 45.75 24 45.75C27.7793 45.75 31.4039 44.2487 34.0763 41.5763C36.7487 38.9039 38.25 35.2793 38.25 31.5V16.5C38.2456 12.722 36.7429 9.1 34.0714 6.42855C31.4 3.7571 27.778 2.25437 24 2.25ZM36.75 31.5C36.75 34.8815 35.4067 38.1245 33.0156 40.5156C30.6245 42.9067 27.3815 44.25 24 44.25C20.6185 44.25 17.3755 42.9067 14.9844 40.5156C12.5933 38.1245 11.25 34.8815 11.25 31.5V16.5C11.25 13.1185 12.5933 9.87548 14.9844 7.48439C17.3755 5.0933 20.6185 3.75 24 3.75C27.3815 3.75 30.6245 5.0933 33.0156 7.48439C35.4067 9.87548 36.75 13.1185 36.75 16.5V31.5Z" fill="white"/>
<path d="M24 8.25C23.8011 8.25 23.6103 8.32902 23.4697 8.46967C23.329 8.61032 23.25 8.80109 23.25 9V21C23.25 21.1989 23.329 21.3897 23.4697 21.5303C23.6103 21.671 23.8011 21.75 24 21.75C24.1989 21.75 24.3897 21.671 24.5303 21.5303C24.671 21.3897 24.75 21.1989 24.75 21V9C24.75 8.80109 24.671 8.61032 24.5303 8.46967C24.3897 8.32902 24.1989 8.25 24 8.25Z" fill="white"/>
<path d="M50.75 16C50.75 15.5858 50.4142 15.25 50 15.25C49.5858 15.25 49.25 15.5858 49.25 16L50.75 16ZM49.4697 32.5303C49.7626 32.8232 50.2374 32.8232 50.5303 32.5303L55.3033 27.7574C55.5962 27.4645 55.5962 26.9896 55.3033 26.6967C55.0104 26.4038 54.5355 26.4038 54.2426 26.6967L50 30.9393L45.7574 26.6967C45.4645 26.4038 44.9896 26.4038 44.6967 26.6967C44.4038 26.9896 44.4038 27.4645 44.6967 27.7574L49.4697 32.5303ZM49.25 16L49.25 32L50.75 32L50.75 16L49.25 16Z" fill="white"/>
</svg>
